<mxfile host="app.diagrams.net" modified="2024-02-14T09:05:14.367Z" agent="Mozilla/5.0 (X11; Linux x86_64) AppleWebKit/537.36 (KHTML, like Gecko) Chrome/121.0.0.0 Safari/537.36" etag="w5QZVY2Nxb8UOZ5GQ75-" version="23.1.4" type="github">
  <diagram name="Page-1" id="XsVMNcGXvDY-1NwoeTmo">
    <mxGraphModel dx="1382" dy="799" grid="1" gridSize="10" guides="1" tooltips="1" connect="1" arrows="1" fold="1" page="1" pageScale="1" pageWidth="850" pageHeight="1100" math="0" shadow="0">
      <root>
        <mxCell id="0" />
        <mxCell id="1" parent="0" />
        <mxCell id="eOPD6KtgHW6NBypbmPTg-4" value="" style="edgeStyle=orthogonalEdgeStyle;rounded=0;orthogonalLoop=1;jettySize=auto;html=1;" edge="1" parent="1" source="eOPD6KtgHW6NBypbmPTg-1" target="eOPD6KtgHW6NBypbmPTg-3">
          <mxGeometry relative="1" as="geometry" />
        </mxCell>
        <mxCell id="eOPD6KtgHW6NBypbmPTg-1" value="" style="shape=cylinder3;whiteSpace=wrap;html=1;boundedLbl=1;backgroundOutline=1;size=15;" vertex="1" parent="1">
          <mxGeometry x="140" y="220" width="60" height="80" as="geometry" />
        </mxCell>
        <mxCell id="eOPD6KtgHW6NBypbmPTg-2" value="" style="rhombus;whiteSpace=wrap;html=1;" vertex="1" parent="1">
          <mxGeometry x="430" y="220" width="80" height="80" as="geometry" />
        </mxCell>
        <mxCell id="eOPD6KtgHW6NBypbmPTg-5" value="" style="edgeStyle=orthogonalEdgeStyle;rounded=0;orthogonalLoop=1;jettySize=auto;html=1;" edge="1" parent="1" source="eOPD6KtgHW6NBypbmPTg-3" target="eOPD6KtgHW6NBypbmPTg-2">
          <mxGeometry relative="1" as="geometry" />
        </mxCell>
        <mxCell id="eOPD6KtgHW6NBypbmPTg-3" value="" style="shape=cylinder3;whiteSpace=wrap;html=1;boundedLbl=1;backgroundOutline=1;size=15;" vertex="1" parent="1">
          <mxGeometry x="280" y="220" width="60" height="80" as="geometry" />
        </mxCell>
      </root>
    </mxGraphModel>
  </diagram>
</mxfile>
